<svg width="49" height="50" viewBox="0 0 49 50" fill="none" xmlns="http://www.w3.org/2000/svg">
<path d="M17.9639 1.45574C13.9533 3.2939 11.3632 5.9676 9.60859 10.0617C7.93753 14.2393 8.02108 17.2472 10.0264 22.6782C11.781 27.2736 22.2251 43.3158 23.8126 43.9006C25.1494 44.3184 32.335 34.2085 36.5126 26.0203C40.5232 18.1663 40.9409 14.7407 38.5179 9.47682C34.758 1.28864 25.8179 -2.22059 17.9639 1.45574ZM30.9146 3.46101C35.7607 6.05115 38.7686 11.315 38.1837 16.4117C37.933 18.3334 36.5962 22.344 35.2593 25.1848C32.6692 30.4486 25.1494 41.5612 24.1468 41.6447C23.1442 41.6447 15.0395 29.2789 12.5329 23.9315C9.52504 17.5815 9.35793 13.9051 11.9481 9.05906C14.204 4.79786 19.4678 1.53929 24.2304 1.53929C25.9014 1.53929 28.9093 2.37482 30.9146 3.46101Z" fill="#3B6603"/>
<path d="M23.3949 4.8814C23.3949 5.29917 23.8126 5.71693 24.2304 5.71693C24.7317 5.71693 25.0659 5.29917 25.0659 4.8814C25.0659 4.38009 24.7317 4.04588 24.2304 4.04588C23.8126 4.04588 23.3949 4.38009 23.3949 4.8814Z" fill="#3B6603"/>
<path d="M19.2172 5.71695C19.2172 6.13471 19.6349 6.55247 20.0527 6.55247C20.554 6.55247 20.8882 6.13471 20.8882 5.71695C20.8882 5.21563 20.554 4.88142 20.0527 4.88142C19.6349 4.88142 19.2172 5.21563 19.2172 5.71695Z" fill="#3B6603"/>
<path d="M27.5725 5.71695C27.5725 6.13471 27.9902 6.55247 28.408 6.55247C28.9093 6.55247 29.2435 6.13471 29.2435 5.71695C29.2435 5.21563 28.9093 4.88142 28.408 4.88142C27.9902 4.88142 27.5725 5.21563 27.5725 5.71695Z" fill="#3B6603"/>
<path d="M15.8751 8.30708C15.8751 8.72485 16.2928 8.89195 16.7106 8.64129C17.2119 8.39063 17.5461 7.97287 17.5461 7.72221C17.5461 7.5551 17.2119 7.388 16.7106 7.388C16.2928 7.388 15.8751 7.80576 15.8751 8.30708Z" fill="#3B6603"/>
<path d="M31.3323 8.22352C31.583 8.64129 32.0008 9.05905 32.2514 9.05905C32.4185 9.05905 32.5856 8.64129 32.5856 8.22352C32.5856 7.7222 32.1679 7.38799 31.6666 7.38799C31.2488 7.38799 31.0817 7.7222 31.3323 8.22352Z" fill="#3B6603"/>
<path d="M13.3685 11.5656C13.3685 11.9834 13.7862 12.4012 14.204 12.4012C14.7053 12.4012 15.0395 11.9834 15.0395 11.5656C15.0395 11.0643 14.7053 10.7301 14.204 10.7301C13.7862 10.7301 13.3685 11.0643 13.3685 11.5656Z" fill="#3B6603"/>
<path d="M20.8882 12.4012C19.9692 13.3203 19.2172 14.8242 19.2172 15.7433C19.2172 16.6624 19.9692 18.1663 20.8882 19.0854C21.8073 20.0045 23.3113 20.7565 24.2304 20.7565C26.4027 20.7565 29.2435 17.9157 29.2435 15.7433C29.2435 14.8242 28.4916 13.3203 27.5725 12.4012C26.6534 11.4821 25.1494 10.7301 24.2304 10.7301C23.3113 10.7301 21.8073 11.4821 20.8882 12.4012ZM26.7369 13.6545C28.9093 16.3282 25.6508 20.4223 22.81 18.5841C20.8882 17.4144 20.4705 15.1584 21.7238 13.6545C23.0606 12.067 25.4001 12.067 26.7369 13.6545Z" fill="#3B6603"/>
<path d="M33.4212 11.5656C33.4212 11.9834 33.8389 12.4012 34.2567 12.4012C34.758 12.4012 35.0922 11.9834 35.0922 11.5656C35.0922 11.0643 34.758 10.7301 34.2567 10.7301C33.8389 10.7301 33.4212 11.0643 33.4212 11.5656Z" fill="#3B6603"/>
<path d="M12.5329 15.7433C12.5329 16.161 12.9507 16.5788 13.3684 16.5788C13.8697 16.5788 14.204 16.161 14.204 15.7433C14.204 15.242 13.8697 14.9078 13.3684 14.9078C12.9507 14.9078 12.5329 15.242 12.5329 15.7433Z" fill="#3B6603"/>
<path d="M34.2567 15.7433C34.2567 16.161 34.6745 16.5788 35.0923 16.5788C35.5936 16.5788 35.9278 16.161 35.9278 15.7433C35.9278 15.242 35.5936 14.9078 35.0923 14.9078C34.6745 14.9078 34.2567 15.242 34.2567 15.7433Z" fill="#3B6603"/>
<path d="M13.3685 19.9209C13.3685 20.3387 13.7862 20.7565 14.204 20.7565C14.7053 20.7565 15.0395 20.3387 15.0395 19.9209C15.0395 19.4196 14.7053 19.0854 14.204 19.0854C13.7862 19.0854 13.3685 19.4196 13.3685 19.9209Z" fill="#3B6603"/>
<path d="M33.4212 19.9209C33.4212 20.3387 33.8389 20.7565 34.2567 20.7565C34.758 20.7565 35.0922 20.3387 35.0922 19.9209C35.0922 19.4196 34.758 19.0854 34.2567 19.0854C33.8389 19.0854 33.4212 19.4196 33.4212 19.9209Z" fill="#3B6603"/>
<path d="M3.3421 35.796C3.3421 36.2138 3.75987 36.6315 4.17763 36.6315C4.67895 36.6315 5.01316 36.2138 5.01316 35.796C5.01316 35.2947 4.67895 34.9605 4.17763 34.9605C3.75987 34.9605 3.3421 35.2947 3.3421 35.796Z" fill="#3B6603"/>
<path d="M6.68428 35.796C6.68428 36.2138 7.10205 36.6315 7.51981 36.6315C8.02113 36.6315 8.35534 36.2138 8.35534 35.796C8.35534 35.2947 8.02113 34.9605 7.51981 34.9605C7.10205 34.9605 6.68428 35.2947 6.68428 35.796Z" fill="#3B6603"/>
<path d="M10.0264 35.796C10.0264 36.2138 10.4441 36.6315 10.8619 36.6315C11.3632 36.6315 11.6974 36.2138 11.6974 35.796C11.6974 35.2947 11.3632 34.9605 10.8619 34.9605C10.4441 34.9605 10.0264 35.2947 10.0264 35.796Z" fill="#3B6603"/>
<path d="M13.3685 35.796C13.3685 36.2138 13.7862 36.6315 14.204 36.6315C14.7053 36.6315 15.0395 36.2138 15.0395 35.796C15.0395 35.2947 14.7053 34.9605 14.204 34.9605C13.7862 34.9605 13.3685 35.2947 13.3685 35.796Z" fill="#3B6603"/>
<path d="M33.4212 35.796C33.4212 36.2138 33.8389 36.6315 34.2567 36.6315C34.758 36.6315 35.0922 36.2138 35.0922 35.796C35.0922 35.2947 34.758 34.9605 34.2567 34.9605C33.8389 34.9605 33.4212 35.2947 33.4212 35.796Z" fill="#3B6603"/>
<path d="M36.7633 35.796C36.7633 36.2138 37.1811 36.6315 37.5989 36.6315C38.1002 36.6315 38.4344 36.2138 38.4344 35.796C38.4344 35.2947 38.1002 34.9605 37.5989 34.9605C37.1811 34.9605 36.7633 35.2947 36.7633 35.796Z" fill="#3B6603"/>
<path d="M40.1054 35.796C40.1054 36.2138 40.5232 36.6315 40.941 36.6315C41.4423 36.6315 41.7765 36.2138 41.7765 35.796C41.7765 35.2947 41.4423 34.9605 40.941 34.9605C40.5232 34.9605 40.1054 35.2947 40.1054 35.796Z" fill="#3B6603"/>
<path d="M43.4475 35.796C43.4475 36.2138 43.8653 36.6315 44.2831 36.6315C44.7844 36.6315 45.1186 36.2138 45.1186 35.796C45.1186 35.2947 44.7844 34.9605 44.2831 34.9605C43.8653 34.9605 43.4475 35.2947 43.4475 35.796Z" fill="#3B6603"/>
<path d="M2.50659 39.1381C2.50659 39.5559 2.92436 39.9736 3.34212 39.9736C3.84344 39.9736 4.17765 39.5559 4.17765 39.1381C4.17765 38.6368 3.84344 38.3026 3.34212 38.3026C2.92436 38.3026 2.50659 38.6368 2.50659 39.1381Z" fill="#3B6603"/>
<path d="M44.2831 39.1381C44.2831 39.5559 44.7009 39.9736 45.1187 39.9736C45.62 39.9736 45.9542 39.5559 45.9542 39.1381C45.9542 38.6368 45.62 38.3026 45.1187 38.3026C44.7009 38.3026 44.2831 38.6368 44.2831 39.1381Z" fill="#3B6603"/>
<path d="M1.6711 42.4802C1.6711 42.898 2.08886 43.3158 2.50663 43.3158C3.00794 43.3158 3.34216 42.898 3.34216 42.4802C3.34216 41.9789 3.00794 41.6447 2.50663 41.6447C2.08886 41.6447 1.6711 41.9789 1.6711 42.4802Z" fill="#3B6603"/>
<path d="M45.1185 42.4802C45.1185 42.898 45.5363 43.3158 45.9541 43.3158C46.4554 43.3158 46.7896 42.898 46.7896 42.4802C46.7896 41.9789 46.4554 41.6447 45.9541 41.6447C45.5363 41.6447 45.1185 41.9789 45.1185 42.4802Z" fill="#3B6603"/>
<path d="M0.83551 45.8223C0.83551 46.2401 1.25328 46.6579 1.67104 46.6579C2.17236 46.6579 2.50657 46.2401 2.50657 45.8223C2.50657 45.321 2.17236 44.9868 1.67104 44.9868C1.25328 44.9868 0.83551 45.321 0.83551 45.8223Z" fill="#3B6603"/>
<path d="M45.9541 45.8223C45.9541 46.2401 46.3719 46.6579 46.7897 46.6579C47.291 46.6579 47.6252 46.2401 47.6252 45.8223C47.6252 45.321 47.291 44.9868 46.7897 44.9868C46.3719 44.9868 45.9541 45.321 45.9541 45.8223Z" fill="#3B6603"/>
<path d="M0 49.1645C0 49.5822 0.417765 50 0.83553 50C1.33685 50 1.67106 49.5822 1.67106 49.1645C1.67106 48.6632 1.33685 48.3289 0.83553 48.3289C0.417765 48.3289 0 48.6632 0 49.1645Z" fill="#3B6603"/>
<path d="M3.3421 49.1645C3.3421 49.5822 3.75987 50 4.17763 50C4.67895 50 5.01316 49.5822 5.01316 49.1645C5.01316 48.6632 4.67895 48.3289 4.17763 48.3289C3.75987 48.3289 3.3421 48.6632 3.3421 49.1645Z" fill="#3B6603"/>
<path d="M6.68428 49.1645C6.68428 49.5822 7.10205 50 7.51981 50C8.02113 50 8.35534 49.5822 8.35534 49.1645C8.35534 48.6632 8.02113 48.3289 7.51981 48.3289C7.10205 48.3289 6.68428 48.6632 6.68428 49.1645Z" fill="#3B6603"/>
<path d="M10.0264 49.1645C10.0264 49.5822 10.4441 50 10.8619 50C11.3632 50 11.6974 49.5822 11.6974 49.1645C11.6974 48.6632 11.3632 48.3289 10.8619 48.3289C10.4441 48.3289 10.0264 48.6632 10.0264 49.1645Z" fill="#3B6603"/>
<path d="M13.3685 49.1645C13.3685 49.5822 13.7862 50 14.204 50C14.7053 50 15.0395 49.5822 15.0395 49.1645C15.0395 48.6632 14.7053 48.3289 14.204 48.3289C13.7862 48.3289 13.3685 48.6632 13.3685 49.1645Z" fill="#3B6603"/>
<path d="M16.7107 49.1645C16.7107 49.5822 17.1284 50 17.5462 50C18.0475 50 18.3817 49.5822 18.3817 49.1645C18.3817 48.6632 18.0475 48.3289 17.5462 48.3289C17.1284 48.3289 16.7107 48.6632 16.7107 49.1645Z" fill="#3B6603"/>
<path d="M20.0527 49.1645C20.0527 49.5822 20.4704 50 20.8882 50C21.3895 50 21.7237 49.5822 21.7237 49.1645C21.7237 48.6632 21.3895 48.3289 20.8882 48.3289C20.4704 48.3289 20.0527 48.6632 20.0527 49.1645Z" fill="#3B6603"/>
<path d="M23.3949 49.1645C23.3949 49.5822 23.8126 50 24.2304 50C24.7317 50 25.0659 49.5822 25.0659 49.1645C25.0659 48.6632 24.7317 48.3289 24.2304 48.3289C23.8126 48.3289 23.3949 48.6632 23.3949 49.1645Z" fill="#3B6603"/>
<path d="M26.737 49.1645C26.737 49.5822 27.1547 50 27.5725 50C28.0738 50 28.408 49.5822 28.408 49.1645C28.408 48.6632 28.0738 48.3289 27.5725 48.3289C27.1547 48.3289 26.737 48.6632 26.737 49.1645Z" fill="#3B6603"/>
<path d="M30.0791 49.1645C30.0791 49.5822 30.4968 50 30.9146 50C31.4159 50 31.7501 49.5822 31.7501 49.1645C31.7501 48.6632 31.4159 48.3289 30.9146 48.3289C30.4968 48.3289 30.0791 48.6632 30.0791 49.1645Z" fill="#3B6603"/>
<path d="M33.4212 49.1645C33.4212 49.5822 33.8389 50 34.2567 50C34.758 50 35.0922 49.5822 35.0922 49.1645C35.0922 48.6632 34.758 48.3289 34.2567 48.3289C33.8389 48.3289 33.4212 48.6632 33.4212 49.1645Z" fill="#3B6603"/>
<path d="M36.7633 49.1645C36.7633 49.5822 37.1811 50 37.5989 50C38.1002 50 38.4344 49.5822 38.4344 49.1645C38.4344 48.6632 38.1002 48.3289 37.5989 48.3289C37.1811 48.3289 36.7633 48.6632 36.7633 49.1645Z" fill="#3B6603"/>
<path d="M40.1054 49.1645C40.1054 49.5822 40.5232 50 40.941 50C41.4423 50 41.7765 49.5822 41.7765 49.1645C41.7765 48.6632 41.4423 48.3289 40.941 48.3289C40.5232 48.3289 40.1054 48.6632 40.1054 49.1645Z" fill="#3B6603"/>
<path d="M43.4475 49.1645C43.4475 49.5822 43.8653 50 44.2831 50C44.7844 50 45.1186 49.5822 45.1186 49.1645C45.1186 48.6632 44.7844 48.3289 44.2831 48.3289C43.8653 48.3289 43.4475 48.6632 43.4475 49.1645Z" fill="#3B6603"/>
<path d="M46.7896 49.1645C46.7896 49.5822 47.2074 50 47.6252 50C48.1265 50 48.4607 49.5822 48.4607 49.1645C48.4607 48.6632 48.1265 48.3289 47.6252 48.3289C47.2074 48.3289 46.7896 48.6632 46.7896 49.1645Z" fill="#3B6603"/>
</svg>
